<svg width="24" height="24" viewBox="0 0 24 24" fill="none" xmlns="http://www.w3.org/2000/svg">
<path d="M16.8002 20V19V20ZM7.2002 20V21V20ZM20.0002 16.8H21.0002H20.0002ZM19.7822 18.908L20.6732 19.362L19.7822 18.908ZM18.9078 19.782L19.3618 20.673L18.9078 19.782ZM18.9078 4.21799L19.3618 3.32698L19.3618 3.32698L18.9078 4.21799ZM20.0002 7.20002H19.0002H20.0002ZM19.7822 5.09204L18.8912 5.54603L19.7822 5.09204ZM4.21799 5.09204L3.32698 4.63805L3.32698 4.63805L4.21799 5.09204ZM5.0918 4.21799L5.54579 5.10899H5.54579L5.0918 4.21799ZM4.21799 18.908L5.10899 18.454H5.10899L4.21799 18.908ZM5.0918 19.782L5.54579 18.891H5.54579L5.0918 19.782ZM8 11C7.44772 11 7 11.4477 7 12C7 12.5523 7.44772 13 8 13V11ZM16 13C16.5523 13 17 12.5523 17 12C17 11.4477 16.5523 11 16 11V13ZM11 16C11 16.5523 11.4477 17 12 17C12.5523 17 13 16.5523 13 16H11ZM13 8C13 7.44772 12.5523 7 12 7C11.4477 7 11 7.44772 11 8H13ZM5 16.8V7.20001H3V16.8H5ZM7.2002 5H16.8002V3H7.2002V5ZM16.8002 19H7.2002V21H16.8002V19ZM19.0002 16.8C19.0002 17.3765 18.9994 17.7488 18.9763 18.0321C18.9541 18.3038 18.9164 18.4045 18.8912 18.454L20.6732 19.362C20.866 18.9836 20.9373 18.5904 20.9696 18.195C21.001 17.8113 21.0002 17.3435 21.0002 16.8H19.0002ZM16.8002 21C17.3438 21 17.8115 21.0008 18.1951 20.9694C18.5904 20.9371 18.9835 20.8657 19.3618 20.673L18.4538 18.891C18.4043 18.9162 18.3036 18.9539 18.0321 18.9761C17.7489 18.9992 17.3767 19 16.8002 19V21ZM18.8912 18.454C18.7956 18.6417 18.6424 18.7949 18.4538 18.891L19.3618 20.673C19.9258 20.3856 20.3854 19.9269 20.6732 19.362L18.8912 18.454ZM16.8002 5C17.3768 5 17.7489 5.00078 18.0321 5.02393C18.3036 5.04611 18.4043 5.08377 18.4538 5.10899L19.3618 3.32698C18.9835 3.13421 18.5904 3.06288 18.1951 3.03057C17.8115 2.99922 17.3437 3 16.8002 3V5ZM21.0002 7.20002C21.0002 6.65647 21.001 6.18867 20.9696 5.80499C20.9373 5.40965 20.866 5.01643 20.6732 4.63805L18.8912 5.54603C18.9164 5.59548 18.9541 5.69619 18.9763 5.96786C18.9994 6.2512 19.0002 6.62347 19.0002 7.20002H21.0002ZM18.4538 5.10899C18.6424 5.20507 18.7956 5.35828 18.8912 5.54603L20.6732 4.63805C20.3854 4.07316 19.9259 3.61439 19.3618 3.32698L18.4538 5.10899ZM5 7.20001C5 6.62346 5.00078 6.25119 5.02393 5.96785C5.04612 5.69619 5.0838 5.59548 5.10899 5.54603L3.32698 4.63805C3.13419 5.01643 3.06287 5.40964 3.03057 5.80499C2.99922 6.18866 3 6.65646 3 7.20001H5ZM7.2002 3C6.65663 3 6.18874 2.99922 5.80498 3.03057C5.40962 3.06286 5.01624 3.13416 4.63781 3.32698L5.54579 5.10899C5.59517 5.08383 5.69595 5.04613 5.9678 5.02393C6.25126 5.00078 6.62365 5 7.2002 5V3ZM5.10899 5.54603C5.205 5.35761 5.35788 5.20474 5.54579 5.10899L4.63781 3.32698C4.07306 3.61473 3.61447 4.07382 3.32698 4.63805L5.10899 5.54603ZM3 16.8C3 17.3436 2.99922 17.8114 3.03057 18.195C3.06287 18.5904 3.13419 18.9836 3.32698 19.362L5.10899 18.454C5.0838 18.4045 5.04612 18.3038 5.02393 18.0322C5.00078 17.7488 5 17.3766 5 16.8H3ZM7.2002 19C6.62367 19 6.25127 18.9992 5.96782 18.9761C5.69598 18.9538 5.59519 18.9161 5.54579 18.891L4.63781 20.673C5.01623 20.8658 5.40959 20.9371 5.80496 20.9694C6.18873 21.0008 6.65662 21 7.2002 21V19ZM3.32698 19.362C3.61449 19.9262 4.0731 20.3853 4.63781 20.673L5.54579 18.891C5.35784 18.7952 5.20498 18.6424 5.10899 18.454L3.32698 19.362ZM19.0002 7.20002V16.8H21.0002V7.20002H19.0002ZM8 13H16V11H8V13ZM13 16V8H11V16H13Z" fill="#3D3D3D"/>
</svg>
