<svg width="112" height="112" viewBox="0 0 112 112" fill="none" xmlns="http://www.w3.org/2000/svg">
<path d="M109.835 70.1053C107.482 68.7879 105.883 66.906 104.848 64.3654C103.812 61.8248 102.213 59.5664 99.8604 58.155C95.9083 55.7085 91.8622 53.262 87.7219 51.0978C84.0522 49.1217 79.6296 52.2269 79.9119 56.4613C79.9119 56.9317 79.9119 57.214 79.4414 57.4022C77.1831 58.5314 76.148 60.4133 76.2421 62.9539C76.2421 63.3303 76.2421 63.5185 75.8658 63.6126C74.172 64.3654 73.137 65.7768 72.5724 67.5647C70.22 66.2473 68.0558 64.93 65.7974 63.7067C65.2329 63.4244 65.421 63.048 65.5151 62.5775C66.9266 58.8137 67.9616 54.8616 68.7144 50.9096C69.5613 46.2047 68.9026 41.9704 65.5151 38.3947C65.1388 38.0183 65.2329 37.736 65.5151 37.3597C66.9266 35.2895 68.2439 33.3135 69.5613 31.2434C69.8436 30.7729 70.22 30.6788 70.7845 30.6788C72.5724 30.6788 74.2661 30.6788 76.054 30.6788C77.3713 30.6788 78.1241 30.0201 78.1241 28.7969C78.1241 27.6677 77.3713 27.009 76.054 27.009C73.8897 27.009 71.6314 27.009 69.4672 27.009C68.4321 27.009 67.6794 27.3854 67.1148 28.3264C65.6092 30.5847 64.1037 32.843 62.5981 35.1013C62.2218 35.6659 61.9395 35.76 61.3749 35.4777C56.576 33.4076 51.9652 34.0663 47.9191 37.2656C47.3545 37.736 47.0722 37.736 46.5076 37.2656C43.7788 34.9131 40.5795 34.0663 37.0039 34.3486C35.0279 34.5368 33.24 35.1013 31.5463 36.1364C30.7935 36.6069 30.4171 37.2656 30.6053 38.1124C30.7935 38.9593 31.3581 39.4298 32.2991 39.5239C32.8636 39.5239 33.3341 39.2416 33.8987 38.9593C37.7566 36.8892 42.3674 37.8301 45.1903 41.1235C46.6017 42.8173 47.5427 42.7232 49.0482 41.1235C51.5889 38.2065 55.7291 37.0774 59.2107 38.4888C59.8694 38.7711 59.9634 38.9593 59.5871 39.5239C58.6461 40.9353 57.7051 42.3468 56.7642 43.7582C56.0114 44.9815 56.1055 46.0165 57.0465 46.6752C57.9874 47.3339 59.0225 47.0516 59.8693 45.8283C60.9044 44.3228 61.9395 42.8173 62.9745 41.1235C64.7624 43.2877 65.5151 45.6402 65.2328 48.369C64.7624 52.7915 63.5391 57.1199 62.0336 61.2602C61.8454 61.9189 61.5631 62.2011 60.8103 62.2952C57.611 62.8598 55.635 65.7768 56.2937 68.7879C56.3878 69.0702 56.576 69.4466 56.3878 69.6348C56.1055 69.9171 55.635 69.823 55.3527 69.6348C54.2236 69.0702 53.4708 68.0351 52.8121 67.0942C51.8711 65.6827 51.2125 64.0831 50.3656 62.4834C49.7069 61.1661 48.6719 60.4133 47.0722 60.4133C45.5667 60.4133 44.5316 61.1661 43.7788 62.3893C43.4965 62.9539 43.2143 63.5185 42.932 64.0831C42.0851 65.8709 41.1441 67.5647 39.6386 68.9761C38.5094 70.0112 37.6626 70.0112 36.5334 69.0702C35.7806 68.5056 35.2161 67.6588 34.7456 66.906C32.3932 63.1421 30.9817 58.9078 29.9466 54.6734C29.0998 51.0978 28.1588 47.428 29.4762 43.7582C29.7584 42.8173 29.0998 41.8763 28.1588 41.6881C27.3119 41.4058 26.2769 41.8763 25.9946 42.8173C25.5241 44.0405 25.1477 45.3579 25.2418 46.6752C25.43 53.1679 27.2178 59.2842 29.7584 65.2122C30.7935 67.6587 32.205 70.0112 34.181 71.799C36.7216 74.0573 39.6386 74.0573 42.0851 71.799C43.5906 70.4816 44.7198 68.7879 45.6608 67.0001C46.1312 66.1532 46.5076 65.3063 47.0722 64.2713C47.3545 64.93 47.5427 65.4004 47.825 65.7768C48.9541 68.0351 50.0833 70.1053 51.9652 71.799C53.9413 73.4927 56.0114 74.0573 58.4579 72.8341C58.9284 72.6459 59.2107 72.6459 59.5871 72.8341C62.8804 74.716 66.1738 76.692 69.4672 78.574C69.8436 78.8562 70.0318 79.0444 69.9377 79.5149C69.3731 82.8083 70.6905 85.5371 73.5133 87.2308C75.6776 88.5482 77.9359 89.7714 80.1942 91.0888C84.3344 93.6294 88.6629 94.0999 93.1795 92.4062C96.2847 91.277 99.2958 91.6534 102.119 93.253C103.53 94.0999 104.942 94.9468 106.447 95.6995C107.576 96.3582 108.705 96.0759 109.176 95.1349C109.646 94.194 109.364 93.1589 108.329 92.5002C107.2 91.8416 105.977 91.1829 104.942 90.5242C100.613 87.7954 96.0965 87.3249 91.2976 89.1128C88.757 90.0537 86.1223 89.9596 83.6758 88.7364C80.7588 87.2308 77.9359 85.5371 75.113 83.8434C74.0779 83.2788 73.6074 82.3378 73.5133 80.9264C75.3953 81.9614 77.089 82.9965 78.7827 83.9375C80.1001 84.6902 81.1352 84.5961 81.7938 83.5611C82.3584 82.526 81.982 81.585 80.6647 80.7382C76.5244 78.3858 72.4783 75.9393 68.338 73.5868C65.7974 72.1754 63.3509 70.6698 60.8103 69.2584C60.0575 68.882 59.6811 68.2233 59.7752 67.3765C59.8693 66.5296 60.4339 66.0591 61.2808 65.8709C61.9395 65.7768 62.41 66.0591 62.9745 66.3414C66.9266 68.5997 70.7845 70.858 74.7366 73.1164C75.8658 73.775 76.9008 73.5868 77.4654 72.74C78.1241 71.8931 77.8418 70.858 76.9008 70.1053C76.0539 69.3525 75.7717 68.4115 76.3362 67.6587C76.9008 66.7178 77.7477 66.7178 78.6887 67.0001C79.8178 67.4706 80.7588 67.1883 81.2293 66.2473C81.6997 65.4004 81.4175 64.5536 80.5706 63.8008C79.7237 63.048 79.4414 62.1071 80.006 61.3543C80.5706 60.5074 81.4175 60.3192 82.3584 60.6956C83.4876 61.1661 84.4285 60.8838 84.899 60.0369C85.3695 59.1901 85.0872 58.3432 84.2403 57.5904C83.864 57.3081 83.4876 56.9317 83.3935 56.4613C83.2994 55.7085 83.3935 55.1439 84.0522 54.6734C84.7108 54.2029 85.4636 54.2029 86.1223 54.6734C89.3216 56.5554 92.4268 58.4373 95.626 60.131C98.2607 61.5425 100.143 63.6126 101.366 66.4355C102.589 69.4466 104.753 71.7049 107.576 73.3045C108.8 73.9632 109.835 73.8691 110.399 72.8341C111.434 71.799 111.058 70.858 109.835 70.1053Z" fill="#52525B"/>
<path d="M67.5853 85.161C67.2089 85.161 66.8325 85.161 66.4562 85.161C48.2955 85.161 30.0408 85.161 11.8801 85.161C7.92808 85.161 5.66976 82.9026 5.66976 78.9506C5.66976 61.2604 5.66976 43.5703 5.66976 25.8801C5.66976 21.834 7.83399 19.6698 11.8801 19.6698C28.9116 19.6698 45.9431 19.6698 62.9746 19.6698C63.351 19.6698 63.6332 19.6698 64.0096 19.6698C64.9506 19.5757 65.6093 18.8229 65.6093 17.7878C65.6093 16.6587 64.8565 16 63.351 16C45.9431 16 28.6293 16 11.2215 16C5.95206 16 2 19.9521 2 25.3156C2 43.288 2 61.3545 2 79.327C2 84.7846 5.95205 88.6425 11.3156 88.7366C20.4429 88.7366 29.5703 88.7366 38.6977 88.7366C48.0132 88.7366 57.2347 88.7366 66.5502 88.7366C66.9266 88.7366 67.2089 88.7366 67.5853 88.7366C68.4322 88.6425 69.1849 87.7957 69.1849 86.9488C69.1849 86.0078 68.4322 85.2551 67.5853 85.161Z" fill="#52525B"/>
<path d="M71.4434 19.6698C80.1943 19.6698 88.9453 19.6698 97.6963 19.6698C101.648 19.6698 103.813 21.9281 103.907 25.8801C103.907 36.3249 103.907 46.8637 103.907 57.3084C103.907 58.8139 104.565 59.6608 105.789 59.6608C106.918 59.6608 107.576 58.8139 107.576 57.4025C107.576 51.9449 107.576 46.4873 107.576 41.0297C107.576 35.7603 107.576 30.4909 107.576 25.2215C107.576 20.0462 103.624 16.0941 98.355 16C92.1446 16 86.0283 16 79.818 16C76.9951 16 74.1722 16 71.3493 16C70.126 16 69.3732 16.7528 69.3732 17.8819C69.2791 19.0111 70.0319 19.6698 71.4434 19.6698Z" fill="#52525B"/>
<path d="M100.143 32.0906C100.143 29.8323 100.143 27.668 100.143 25.4097C100.143 23.9042 99.484 23.3396 97.9785 23.3396C93.3677 23.3396 88.757 23.3396 84.1463 23.3396C82.6407 23.3396 81.9821 23.9983 81.9821 25.4097C81.9821 27.668 81.9821 29.8323 81.9821 32.0906C81.9821 33.5961 82.6407 34.1607 84.1463 34.1607C86.4046 34.1607 88.6629 34.1607 90.9212 34.1607C93.2736 34.1607 95.6261 34.1607 97.9785 34.1607C99.484 34.2548 100.143 33.5961 100.143 32.0906ZM93.8382 30.585C92.8972 30.585 92.0504 30.585 91.1094 30.585C89.5098 30.585 87.9101 30.585 86.3105 30.585C85.7459 30.585 85.6518 30.3968 85.6518 29.9264C85.5577 27.0094 85.5577 27.0094 88.4747 27.0094C90.9212 27.0094 93.2736 27.0094 95.7201 27.0094C96.3788 27.0094 96.567 27.1976 96.567 27.8562C96.567 30.585 96.567 30.585 93.8382 30.585Z" fill="#52525B"/>
<path d="M14.7971 35.2898C14.703 36.6071 15.5498 37.454 16.5849 37.3599C17.62 37.3599 18.3727 36.513 18.3727 35.2898C18.3727 33.7842 18.3727 33.7842 19.9724 33.6901C21.1956 33.596 21.9484 32.9373 21.9484 31.8082C21.9484 30.679 21.1956 30.0204 19.8783 29.9263C18.3727 29.8322 18.3727 29.8322 18.3727 28.4207C18.3727 27.1034 17.62 26.3506 16.4908 26.3506C15.3616 26.3506 14.6089 27.1975 14.703 28.5148C14.7971 29.8322 14.4207 30.1144 13.1974 30.0203C11.8801 29.9263 11.0332 30.679 11.0332 31.8082C11.0332 32.9373 11.8801 33.7842 13.1974 33.6901C14.6089 33.596 14.8912 34.0665 14.7971 35.2898Z" fill="#52525B"/>
<path d="M38.6978 45.1699C39.8269 44.9817 40.3915 44.2289 40.3915 43.288C40.3915 42.2529 39.5446 41.5942 38.4155 41.5942C35.3103 41.5942 32.8638 44.2289 32.8638 47.8046C32.8638 48.7456 33.052 49.8747 33.2402 51.0039C33.5224 52.1331 34.4634 52.7917 35.4985 52.5094C36.4394 52.3212 37.004 51.2862 36.8158 50.2511C36.7217 49.4983 36.5335 48.7456 36.4394 47.9928C36.4394 46.205 37.0981 45.3581 38.6978 45.1699Z" fill="#52525B"/>
<path d="M94.6851 39.6184C94.6851 38.5833 93.9323 37.8306 92.709 37.8306C89.7921 37.8306 86.781 37.8306 83.864 37.8306C82.7348 37.8306 81.982 38.4892 81.8879 39.6184C81.8879 40.7476 82.6407 41.5003 83.864 41.5003C85.2754 41.5003 86.781 41.5003 88.1924 41.5003C89.698 41.5003 91.2035 41.5003 92.709 41.5003C94.0264 41.5003 94.7792 40.7476 94.6851 39.6184Z" fill="#52525B"/>
<path d="M14.7971 79.7032C14.7971 80.8324 15.5499 81.4911 16.7731 81.4911C18.2787 81.4911 19.6901 81.4911 21.1956 81.4911C22.6071 81.4911 24.1126 81.4911 25.5241 81.4911C26.7473 81.4911 27.5001 80.7383 27.5001 79.7032C27.5001 78.5741 26.7473 77.9154 25.5241 77.9154C22.6071 77.9154 19.6901 77.9154 16.7731 77.9154C15.4558 77.8213 14.703 78.5741 14.7971 79.7032Z" fill="#52525B"/>
<path d="M91.0153 45.1699C88.6629 45.1699 86.2164 45.1699 83.864 45.1699C82.7348 45.1699 81.9821 45.9227 81.9821 46.9578C81.9821 47.9928 82.7348 48.7456 83.864 48.7456C85.0872 48.7456 86.3105 48.7456 87.5337 48.7456C88.6629 48.7456 89.8862 48.7456 91.0153 48.7456C92.1445 48.7456 92.8972 47.9928 92.8972 46.9578C92.8972 45.9227 92.1445 45.1699 91.0153 45.1699Z" fill="#52525B"/>
<path d="M23.7363 70.5762C22.6071 70.5762 21.3839 70.5762 20.2547 70.5762C19.1256 70.5762 17.9023 70.5762 16.7732 70.5762C15.644 70.5762 14.8912 71.3289 14.8912 72.364C14.8912 73.4932 15.644 74.2459 16.8673 74.2459C19.2197 74.2459 21.5721 74.2459 23.9245 74.2459C25.0537 74.2459 25.8064 73.4932 25.8064 72.4581C25.7123 71.3289 24.9596 70.5762 23.7363 70.5762Z" fill="#52525B"/>
<path d="M12.9151 50.5335C12.821 49.4984 12.0683 48.7456 11.0332 48.8397C10.0922 48.8397 9.33946 49.4984 9.24536 50.5335C9.24536 51.8508 9.24536 53.0741 9.24536 54.3914C9.24536 55.4265 10.0922 56.1793 11.1273 56.0852C12.1624 56.0852 12.821 55.3324 12.9151 54.2973C12.9151 53.7328 12.9151 53.0741 12.9151 52.5095C12.9151 51.7567 13.0092 51.1921 12.9151 50.5335Z" fill="#52525B"/>
<path d="M23.0777 26.4447C24.0187 26.4447 24.9597 25.5037 24.9597 24.5627C24.9597 23.5277 24.0187 22.7749 22.9837 22.7749C21.9486 22.869 21.2899 23.6218 21.2899 24.6568C21.2899 25.6919 22.1368 26.4447 23.0777 26.4447Z" fill="#52525B"/>
<path d="M27.5001 33.7841C28.5352 33.7841 29.2879 32.9373 29.2879 31.8081C29.2879 30.773 28.4411 30.0203 27.406 30.0203C26.3709 30.0203 25.6182 30.773 25.6182 31.8081C25.6182 32.8432 26.465 33.7841 27.5001 33.7841Z" fill="#52525B"/>
<path d="M38.4153 27.0094C38.4153 28.0444 39.2621 28.7972 40.2972 28.7972C41.3323 28.7972 42.085 28.0444 42.085 27.0094C42.085 25.9743 41.3323 25.1274 40.2031 25.1274C39.0739 25.1274 38.3212 25.9743 38.4153 27.0094Z" fill="#52525B"/>
<path d="M45.6608 27.0091C45.6608 28.0442 46.5076 28.8911 47.5427 28.797C48.5778 28.797 49.3305 27.9501 49.3305 27.0091C49.3305 25.9741 48.5778 25.2213 47.5427 25.2213C46.4135 25.1272 45.6608 25.88 45.6608 27.0091Z" fill="#52525B"/>
<path d="M52.9062 26.9153C52.9062 27.9503 53.659 28.7031 54.6941 28.7031C55.7292 28.7031 56.576 27.9503 56.576 26.9153C56.576 25.8802 55.8232 25.1274 54.7882 25.1274C53.7531 25.1274 52.9062 25.8802 52.9062 26.9153Z" fill="#52525B"/>
</svg>
