<svg width="90" height="102" viewBox="0 0 90 102" fill="none" xmlns="http://www.w3.org/2000/svg">
<path d="M46.7432 29.4506C47.405 31.1052 48.8941 31.9324 50.7141 32.0152C51.6241 32.0152 52.6168 32.0152 53.5268 32.0152C54.0231 32.0152 54.2713 32.1806 54.354 32.677C55.3468 38.0542 56.3395 43.4314 57.3322 48.8087C57.8285 51.6214 59.6485 53.2759 62.2958 53.3586C64.8603 53.3586 66.763 51.6213 67.3421 48.8914C68.3348 43.5142 69.3275 38.1369 70.3203 32.7597C70.403 32.2633 70.5684 32.0979 71.0648 32.0979C71.8921 32.0979 72.7193 32.0979 73.5466 32.0979C75.7802 32.0979 77.1865 31.1879 78.0138 29.1197C78.1793 28.6234 78.4275 28.2097 78.5929 27.7134C80.4129 23.2462 82.3156 18.7789 82.7292 13.8981C82.8947 11.9953 82.8947 10.0099 82.2329 8.18993C81.902 7.36266 81.2402 6.94903 80.4129 7.19721C79.5856 7.44539 79.0893 8.18993 79.3374 9.01719C79.9993 11.2508 79.7511 13.4844 79.3374 15.718C78.5102 19.8544 76.8557 23.6598 75.3666 27.5479C74.8702 28.8716 74.622 29.037 73.133 29.037C66.5148 29.037 59.814 29.037 53.1959 29.037C49.225 29.037 49.9695 29.3679 48.5632 25.9761C46.9087 21.7571 45.1714 17.4553 44.7578 12.8226C44.3441 8.85174 46.6605 4.96359 50.3832 3.55724C53.0304 2.56452 55.5949 2.8127 58.0767 4.21905C60.724 5.6254 63.3712 5.79086 66.1012 4.38451C69.1621 2.72998 72.223 2.39907 75.3666 4.13633C76.1111 4.54996 76.8556 4.21905 77.2693 3.47451C77.6829 2.64725 77.4347 1.90271 76.6075 1.40635C75.2839 0.661812 73.8775 0.330906 72.4712 0C71.313 0 70.2375 0 69.0794 0C67.2594 0.496359 65.5221 1.32362 63.7849 2.06816C62.7921 2.4818 61.7167 2.4818 60.8067 2.06816C58.9867 1.32362 57.2495 0.413633 55.3468 0C54.1886 0 52.9477 0 51.7895 0C51.7068 0.165453 51.5413 0.165453 51.3759 0.24818C49.5559 0.579086 47.9841 1.32362 46.495 2.39907C42.1105 5.87358 41.2005 10.4235 42.1105 15.6353C42.855 20.3507 44.8405 24.9007 46.7432 29.4506ZM64.1158 48.6432C63.8676 49.8841 62.8749 50.3805 61.7167 50.1323C60.8067 49.8841 59.9794 48.5605 60.2276 47.5678C60.2276 47.4023 60.3931 47.2368 60.4758 47.1541C61.9649 45.5823 63.5367 44.0105 65.1085 42.5214C65.1912 42.5214 65.2739 42.6042 65.3567 42.6042C64.943 44.6723 64.6121 46.6578 64.1158 48.6432ZM67.1767 32.0152C67.5076 32.1806 67.2594 32.5115 67.1767 32.8424C67.0112 33.587 66.8458 34.2488 66.763 34.9933C66.6803 36.5651 65.9357 37.6406 64.8603 38.6333C63.123 40.2878 61.3858 42.0251 59.5658 43.9278C59.3176 42.5214 59.0695 41.2805 58.8213 40.1224C58.7385 39.7915 58.9867 39.626 59.1522 39.4606C61.4685 37.1442 63.8676 34.7451 66.1839 32.4288C66.5148 32.0152 66.8458 31.8497 67.1767 32.0152ZM57.9113 32.0152C59.2349 32.0152 60.6412 32.0152 61.8821 32.0152C60.6412 33.2561 59.3176 34.497 57.994 35.8206C57.8286 34.8279 57.5804 33.6697 57.3322 32.5115C57.2495 31.9324 57.5804 32.0152 57.9113 32.0152Z" fill="#52525B"/>
<path d="M89.9265 80.6583C89.8437 75.8602 89.9265 70.9793 89.0992 66.2639C88.2719 61.4657 84.7147 60.1421 80.9093 63.1203C79.9165 63.9475 79.0893 64.8575 78.3447 65.8503C77.7657 66.6775 76.9384 67.0084 75.9457 67.0912C74.9529 67.0912 74.043 67.0912 73.0502 67.0912C72.4711 67.0912 72.3884 66.9257 72.3884 66.4293C72.3884 65.4366 72.3884 64.4439 72.3884 63.4512C72.3884 62.293 71.8093 61.7139 70.6512 61.7139C65.0258 61.7139 59.4831 61.7139 53.8577 61.7139C52.7823 61.7139 52.2859 62.2103 52.2032 63.2857C52.1204 64.1957 52.2032 65.1057 52.2032 66.0157C52.2032 66.3466 52.5341 67.0912 51.955 67.0912C51.1277 67.0912 50.135 67.5875 49.5559 66.7602C48.2323 64.6921 46.3296 63.7821 43.8478 63.7821C44.8405 60.8867 45.6678 58.074 45.916 55.0958C46.3296 50.4631 44.7578 46.575 40.9524 43.845C37.1469 41.115 32.9279 40.8668 28.7916 42.935C26.3925 44.1759 24.4071 44.1759 22.008 42.935C14.2317 38.8814 4.88359 44.6723 4.80086 53.4413C4.80086 55.8403 5.21451 58.1567 5.87632 60.3903C6.04178 61.0521 6.04177 61.383 5.29723 61.383C3.9736 61.4657 3.06363 62.2103 2.23636 63.203C1.16092 64.4439 0.912717 65.933 0.664538 67.4221C-0.0800009 72.7166 0.00273564 78.011 0.00273564 83.3883C0.00273564 84.0501 0.0854723 84.6292 0.168199 85.291C0.912737 89.0964 3.39451 91.6609 6.45539 93.8118C7.36539 94.4736 8.19266 94.3082 8.68902 93.5636C9.2681 92.7364 9.10264 91.9918 8.10992 91.2473C7.03448 90.5028 6.04176 89.6755 5.2145 88.6828C3.9736 87.2764 3.06363 85.7046 3.06363 83.8846C2.89817 79.0038 3.06363 74.2056 3.47726 69.3248C3.55999 68.2493 3.6427 67.1739 4.05633 66.0984C4.38724 65.1884 5.29723 64.4439 6.20722 64.3612C7.19994 64.3612 7.53084 65.1057 7.77902 65.8503C8.19266 66.9257 8.60629 67.9184 9.01992 68.9939C10.6745 73.2956 12.5772 77.432 13.4044 81.9819C13.5699 82.8092 13.7353 83.6364 14.0662 84.381C15.3071 87.0282 18.0371 87.6073 20.188 85.5392C21.1807 84.5464 21.8425 83.3883 22.2562 82.0646C22.918 79.831 23.5798 77.5974 24.2416 75.3638C24.407 74.702 24.6552 74.0402 25.4825 74.0402C26.3098 74.0402 26.4752 74.702 26.7234 75.3638C27.3852 77.5974 28.047 79.9138 28.7088 82.1474C29.1225 83.6365 29.867 84.8773 31.1079 85.8701C33.0933 87.3591 35.4097 86.9455 36.6506 84.7946C37.0642 84.0501 37.3124 83.3055 37.4778 82.4783C38.3051 77.5974 40.3733 73.1302 42.1933 68.5802C42.6069 67.5048 43.5996 66.9257 44.8405 66.9257C45.9987 66.9257 46.7432 67.5048 47.1568 68.4975C47.7359 69.7384 48.6459 70.2348 49.9695 70.152C51.8723 70.0693 53.8577 70.152 55.7604 70.152C56.3395 70.152 56.5877 70.3175 56.5877 70.8966C56.6704 71.8066 56.8358 72.7165 57.0013 73.6265C57.6631 78.0938 58.2422 82.4783 58.904 86.9455C59.2349 89.0137 60.8067 90.2546 62.7922 90.2546C64.7776 90.2546 66.2667 88.9309 66.5976 86.8628C67.3421 81.5683 68.0039 76.2738 68.6657 70.9793C68.7485 70.3175 68.9139 70.152 69.5757 70.152C71.7266 70.2348 73.8775 70.152 76.0284 70.152C78.3447 70.2348 80.082 69.242 81.3229 67.4221C81.9847 66.5121 82.5638 65.6021 83.4738 64.9403C84.4665 64.1957 85.211 64.3612 85.8728 65.3539C86.3692 66.1812 86.4519 67.0912 86.5347 68.0011C87.1138 72.9647 87.1137 77.9283 87.1965 82.8092C87.1965 84.9601 86.4519 86.7801 85.0456 88.4346C84.1356 89.51 82.9774 90.42 81.8193 91.2473C78.0966 93.7291 73.9602 95.1354 69.6585 96.2109C62.7094 97.9481 55.6777 98.6927 48.5632 98.8581C39.8769 99.1063 31.2734 98.4445 22.8353 96.6245C20.4362 96.1282 18.1199 95.4663 15.8862 94.6391C14.5626 94.1427 13.4872 95.0527 13.7353 96.3763C13.9008 97.1209 14.4799 97.3691 15.059 97.5345C22.5044 100.182 30.1979 101.34 38.0569 101.754C48.6459 102.25 59.1522 101.754 69.493 99.2718C74.5393 98.1136 79.5029 96.4591 83.8874 93.4809C86.7001 91.5782 89.0165 89.2619 89.9265 85.8701C90.0919 84.2983 89.9265 82.4783 89.9265 80.6583ZM42.8551 54.2685C42.6069 58.8185 40.8696 62.9548 39.2978 67.1739C37.6433 71.4757 35.7406 75.612 34.7479 80.0792C34.4997 81.0719 34.3343 82.0646 34.0861 82.9746C34.0033 83.3883 33.8379 83.8019 33.3415 83.8019C32.8452 83.8846 32.597 83.5537 32.4315 83.1401C31.687 82.0646 31.3561 80.8237 31.0252 79.5829C30.4461 77.7629 30.0325 75.8602 29.3706 74.0402C28.2952 70.8966 24.738 69.9866 22.5044 72.2202C21.8425 72.882 21.5116 73.7093 21.2635 74.5365C20.6844 76.6047 20.1053 78.7556 19.4435 80.8237C19.1953 81.7337 18.8644 82.561 18.2853 83.3055C17.7062 83.9674 17.2098 83.8846 16.8789 83.0574C16.4653 82.1474 16.3826 81.0719 16.2171 80.0792C15.1417 75.4465 13.1562 71.1448 11.5017 66.6775C10.1781 63.2857 8.85447 59.8939 8.27539 56.254C8.10993 55.344 8.02722 54.434 8.02722 53.9376C7.94449 46.8232 14.9762 42.4386 20.9325 45.5823C24.0761 47.2368 27.0543 47.3195 30.1979 45.5823C33.1761 43.9277 36.3197 44.0932 39.1324 46.0786C41.7796 48.0641 43.0205 50.794 42.8551 54.2685ZM65.1085 72.3856C64.5294 76.8529 63.9503 81.3201 63.3712 85.7873C63.3712 85.9528 63.2885 86.201 63.2885 86.3664C63.2058 86.8628 63.0403 87.1937 62.4613 87.1937C61.9649 87.1937 61.7167 86.8628 61.634 86.3664C61.3858 84.7946 61.1376 83.1401 60.9722 81.5683C60.4758 78.0111 59.9794 74.3711 59.4004 70.8138C59.3176 70.152 59.4831 69.9866 60.0622 70.0693C60.8067 70.152 61.5513 70.0693 62.3785 70.0693C62.6267 70.0693 62.8749 70.0693 63.2058 70.0693C65.4394 70.152 65.3567 70.152 65.1085 72.3856ZM67.7557 67.0912C63.9503 67.0912 60.1449 67.0912 56.2568 67.0912C55.5122 67.0912 55.0986 66.9257 55.264 66.0984C55.3468 65.8503 55.264 65.6021 55.264 65.2712C55.1813 64.7748 55.4295 64.6094 55.9259 64.6094C58.0768 64.6094 60.2276 64.6094 62.3785 64.6094C64.364 64.6094 66.4321 64.6094 68.4176 64.6094C68.9967 64.6094 69.2448 64.6921 69.2448 65.4366C69.3276 67.0912 69.3275 67.0912 67.7557 67.0912Z" fill="#52525B"/>
<path d="M47.7361 11.9952C47.7361 13.0706 48.3152 13.6497 49.3079 13.6497C50.3006 13.6497 50.7142 13.0706 50.7969 12.1606C51.0451 10.1752 52.2033 9.01703 54.0233 8.85158C55.1814 8.76885 55.7605 8.10704 55.6778 7.19705C55.5951 6.28706 54.9333 5.7907 53.8578 5.87343C50.6315 5.87343 47.7361 8.76885 47.7361 11.9952Z" fill="#52525B"/>
<path d="M17.0443 47.6505C13.818 47.6505 10.8398 50.6287 10.7571 53.855C10.7571 54.8477 11.2534 55.5096 12.1634 55.5923C12.9907 55.675 13.6525 55.1787 13.818 54.3514C14.3143 51.7869 14.728 51.2905 17.3752 50.7114C18.2852 50.546 18.7816 49.8842 18.6988 49.0569C18.6161 48.1469 17.9543 47.5678 17.0443 47.6505Z" fill="#52525B"/>
</svg>
