<svg width="217" height="48" viewBox="0 0 217 48" fill="none" xmlns="http://www.w3.org/2000/svg">
<g clip-path="url(#clip0_30_273)">
<path d="M34.6859 23.5869C34.729 17.6408 29.9893 12.6426 24.0001 12.3841C21.5441 12.2548 19.2174 12.9873 17.3215 14.2368C15.4257 12.9873 13.0989 12.2548 10.6429 12.3841C4.73993 12.5995 -0.0427988 17.5977 0.000288864 23.5869C0.000288864 25.4827 0.991305 29.0159 3.53348 30.3516C3.4473 32.3337 3.05951 39.0123 7.28211 43.7088C8.96252 45.6047 11.9356 45.6478 13.6591 43.795C14.3054 43.1056 14.8655 42.1577 15.1241 40.9512C15.4257 39.7017 15.7273 37.8489 15.9858 35.8669C16.2013 34.3157 18.4418 34.3157 18.6573 35.8669C18.9589 37.8058 19.2605 39.6586 19.519 40.9512C19.7775 42.2007 20.3377 43.1056 20.984 43.795C22.7075 45.6478 25.6805 45.6047 27.361 43.7088C31.5836 39.0553 31.1958 32.3337 31.1096 30.3516C33.6087 29.1452 34.6859 25.4827 34.6859 23.5869ZM6.9374 17.4253C6.11874 18.1147 5.42934 18.9334 4.8692 19.8813C4.09362 21.2601 3.66274 22.8113 3.66274 24.3624C3.66274 24.8364 3.27495 25.2242 2.7579 25.2242C2.24085 25.2242 1.85306 24.8364 1.85306 24.3194C1.85306 22.4666 2.37011 20.5707 3.27495 18.9765C3.92127 17.8562 4.73993 16.8652 5.73095 16.0034C6.11874 15.7018 6.67888 15.7449 6.98049 16.1327C7.36828 16.5636 7.32519 17.1237 6.9374 17.4253ZM8.87635 16.0465L8.704 16.1327C8.57474 16.2189 8.44547 16.2189 8.27312 16.2189C7.97151 16.2189 7.62681 16.0465 7.49754 15.7449C7.28211 15.314 7.45446 14.7539 7.88533 14.5385L8.05768 14.4523C8.48856 14.2368 9.0487 14.4092 9.26414 14.8401C9.47958 15.2709 9.30723 15.8311 8.87635 16.0465Z" fill="#516EFF"/>
<path d="M26.37 2C19.3036 2 13.0128 5.40393 9.0918 10.6175C9.56576 10.5314 10.0828 10.4883 10.5999 10.4452C10.7722 10.4452 10.9877 10.4452 11.16 10.4452C11.6771 10.4452 12.1941 10.4883 12.7112 10.5314C12.7973 10.4452 12.9266 10.3159 13.0128 10.2297C16.5891 6.65347 21.3287 4.71452 26.37 4.71452C28.3951 4.71452 30.3771 5.01614 32.273 5.66245C32.6177 5.66245 34.729 5.66245 34.729 5.66245C34.729 5.66245 34.729 3.76659 34.729 3.68042C32.1868 2.60323 29.343 2 26.37 2Z" fill="#516EFF"/>
<path d="M46.1472 14.8401C45.3716 14.8401 44.0359 14.8401 44.0359 14.8401C44.0359 14.8401 44.0359 16.6498 44.0359 16.9083C44.8114 19.0196 45.2423 21.2602 45.2423 23.5438C45.2423 28.5851 43.2603 33.3247 39.7271 36.901C37.2711 39.357 34.2119 41.0805 30.9372 41.8561C30.3771 42.9333 29.6877 43.9674 28.7828 44.9153C28.7397 44.9584 28.6967 45.0015 28.6967 45.0446C39.5547 43.8812 47.9999 34.7035 47.9999 23.5869C47.9568 20.4846 47.3105 17.5116 46.1472 14.8401Z" fill="#516EFF"/>
<path d="M45.6301 7.42905H42.1831V3.98203C42.1831 3.33572 41.666 2.81866 41.0197 2.81866H37.7451C37.0987 2.81866 36.5817 3.33572 36.5817 3.98203V7.42905H33.1347C32.4884 7.42905 31.9713 7.9461 31.9713 8.59241V11.8671C31.9713 12.5134 32.4884 13.0304 33.1347 13.0304H36.5817V16.4775C36.5817 17.1238 37.0987 17.6408 37.7451 17.6408H41.0197C41.666 17.6408 42.1831 17.1238 42.1831 16.4775V13.0304H45.6301C46.2764 13.0304 46.7935 12.5134 46.7935 11.8671V8.59241C46.7935 7.9461 46.2764 7.42905 45.6301 7.42905ZM38.4345 6.95508C38.4345 7.2567 38.219 7.47213 37.9174 7.47213C37.6158 7.47213 37.4004 7.2567 37.4004 6.95508V5.70554C37.4004 5.40393 37.6158 5.18849 37.9174 5.18849C38.219 5.18849 38.4345 5.40393 38.4345 5.70554V6.95508ZM38.4345 4.19747C38.4345 4.456 38.219 4.71452 37.9174 4.71452C37.6158 4.71452 37.4004 4.49908 37.4004 4.19747V4.06821C37.4004 3.76659 37.6158 3.55116 37.9174 3.55116C38.219 3.55116 38.4345 3.76659 38.4345 4.06821V4.19747Z" fill="#516EFF"/>
</g>
<path d="M72.778 35.632C73.086 35.66 73.492 35.688 73.996 35.716C74.5 35.716 75.186 35.716 76.054 35.716C79.61 35.716 82.256 34.82 83.992 33.028C85.756 31.208 86.638 28.674 86.638 25.426C86.638 22.122 85.784 19.588 84.076 17.824C82.368 16.06 79.722 15.178 76.138 15.178C74.57 15.178 73.45 15.22 72.778 15.304V35.632ZM92.182 25.426C92.182 27.946 91.79 30.144 91.006 32.02C90.222 33.868 89.102 35.422 87.646 36.682C86.218 37.914 84.482 38.838 82.438 39.454C80.422 40.042 78.182 40.336 75.718 40.336C74.542 40.336 73.212 40.28 71.728 40.168C70.244 40.084 68.83 39.888 67.486 39.58V11.314C68.83 11.006 70.258 10.81 71.77 10.726C73.282 10.642 74.626 10.6 75.802 10.6C78.238 10.6 80.464 10.894 82.48 11.482C84.496 12.042 86.218 12.938 87.646 14.17C89.102 15.374 90.222 16.914 91.006 18.79C91.79 20.638 92.182 22.85 92.182 25.426ZM96.4906 29.122C96.4906 27.19 96.7706 25.496 97.3306 24.04C97.9186 22.584 98.6886 21.38 99.6406 20.428C100.593 19.448 101.685 18.72 102.917 18.244C104.149 17.74 105.409 17.488 106.697 17.488C109.721 17.488 112.073 18.426 113.753 20.302C115.461 22.178 116.315 24.978 116.315 28.702C116.315 28.982 116.301 29.304 116.273 29.668C116.273 30.004 116.259 30.312 116.231 30.592H101.741C101.881 32.356 102.497 33.728 103.589 34.708C104.709 35.66 106.319 36.136 108.419 36.136C109.651 36.136 110.771 36.024 111.779 35.8C112.815 35.576 113.627 35.338 114.215 35.086L114.887 39.244C114.607 39.384 114.215 39.538 113.711 39.706C113.235 39.846 112.675 39.972 112.031 40.084C111.415 40.224 110.743 40.336 110.015 40.42C109.287 40.504 108.545 40.546 107.789 40.546C105.857 40.546 104.177 40.266 102.749 39.706C101.321 39.118 100.145 38.32 99.2206 37.312C98.2966 36.276 97.6106 35.072 97.1626 33.7C96.7146 32.3 96.4906 30.774 96.4906 29.122ZM111.233 26.854C111.233 26.154 111.135 25.496 110.939 24.88C110.743 24.236 110.449 23.69 110.057 23.242C109.693 22.766 109.231 22.402 108.671 22.15C108.139 21.87 107.495 21.73 106.739 21.73C105.955 21.73 105.269 21.884 104.681 22.192C104.093 22.472 103.589 22.85 103.169 23.326C102.777 23.802 102.469 24.348 102.245 24.964C102.021 25.58 101.867 26.21 101.783 26.854H111.233ZM121.703 18.748C122.683 18.468 123.957 18.202 125.525 17.95C127.093 17.698 128.829 17.572 130.733 17.572C132.525 17.572 134.023 17.824 135.227 18.328C136.431 18.804 137.383 19.49 138.083 20.386C138.811 21.254 139.315 22.318 139.595 23.578C139.903 24.81 140.057 26.168 140.057 27.652V40H134.975V28.45C134.975 27.274 134.891 26.28 134.723 25.468C134.583 24.628 134.331 23.956 133.967 23.452C133.631 22.92 133.155 22.542 132.539 22.318C131.951 22.066 131.223 21.94 130.355 21.94C129.711 21.94 129.039 21.982 128.339 22.066C127.639 22.15 127.121 22.22 126.785 22.276V40H121.703V18.748ZM146.019 12.238L151.101 11.398V18.034H158.913V22.276H151.101V31.222C151.101 32.986 151.381 34.246 151.941 35.002C152.501 35.758 153.453 36.136 154.797 36.136C155.721 36.136 156.533 36.038 157.233 35.842C157.961 35.646 158.535 35.464 158.955 35.296L159.795 39.328C159.207 39.58 158.437 39.832 157.485 40.084C156.533 40.364 155.413 40.504 154.125 40.504C152.557 40.504 151.241 40.294 150.177 39.874C149.141 39.454 148.315 38.852 147.699 38.068C147.083 37.256 146.649 36.29 146.397 35.17C146.145 34.022 146.019 32.72 146.019 31.264V12.238ZM168.95 40H163.868V18.034H168.95V40ZM169.496 11.608C169.496 12.56 169.188 13.316 168.572 13.876C167.956 14.436 167.228 14.716 166.388 14.716C165.52 14.716 164.778 14.436 164.162 13.876C163.546 13.316 163.238 12.56 163.238 11.608C163.238 10.628 163.546 9.858 164.162 9.298C164.778 8.738 165.52 8.458 166.388 8.458C167.228 8.458 167.956 8.738 168.572 9.298C169.188 9.858 169.496 10.628 169.496 11.608ZM174.215 29.038C174.215 27.414 174.467 25.902 174.971 24.502C175.475 23.074 176.189 21.842 177.113 20.806C178.065 19.77 179.213 18.958 180.557 18.37C181.901 17.782 183.413 17.488 185.093 17.488C187.165 17.488 189.125 17.866 190.973 18.622L189.881 22.78C189.293 22.528 188.621 22.318 187.865 22.15C187.137 21.982 186.353 21.898 185.513 21.898C183.525 21.898 182.013 22.528 180.977 23.788C179.941 25.02 179.423 26.77 179.423 29.038C179.423 31.222 179.913 32.958 180.893 34.246C181.873 35.506 183.525 36.136 185.849 36.136C186.717 36.136 187.571 36.052 188.411 35.884C189.251 35.716 189.979 35.506 190.595 35.254L191.309 39.454C190.749 39.734 189.895 39.986 188.747 40.21C187.627 40.434 186.465 40.546 185.261 40.546C183.385 40.546 181.747 40.266 180.347 39.706C178.975 39.118 177.827 38.32 176.903 37.312C176.007 36.276 175.335 35.058 174.887 33.658C174.439 32.23 174.215 30.69 174.215 29.038ZM200.746 36.346C202.09 36.346 203.07 36.192 203.686 35.884C204.302 35.548 204.61 34.988 204.61 34.204C204.61 33.476 204.274 32.874 203.602 32.398C202.958 31.922 201.88 31.404 200.368 30.844C199.444 30.508 198.59 30.158 197.806 29.794C197.05 29.402 196.392 28.954 195.832 28.45C195.272 27.946 194.824 27.344 194.488 26.644C194.18 25.916 194.026 25.034 194.026 23.998C194.026 21.982 194.768 20.4 196.252 19.252C197.736 18.076 199.752 17.488 202.3 17.488C203.588 17.488 204.82 17.614 205.996 17.866C207.172 18.09 208.054 18.314 208.642 18.538L207.718 22.654C207.158 22.402 206.444 22.178 205.576 21.982C204.708 21.758 203.7 21.646 202.552 21.646C201.516 21.646 200.676 21.828 200.032 22.192C199.388 22.528 199.066 23.06 199.066 23.788C199.066 24.152 199.122 24.474 199.234 24.754C199.374 25.034 199.598 25.3 199.906 25.552C200.214 25.776 200.62 26.014 201.124 26.266C201.628 26.49 202.244 26.728 202.972 26.98C204.176 27.428 205.198 27.876 206.038 28.324C206.878 28.744 207.564 29.234 208.096 29.794C208.656 30.326 209.062 30.942 209.314 31.642C209.566 32.342 209.692 33.182 209.692 34.162C209.692 36.262 208.908 37.858 207.34 38.95C205.8 40.014 203.588 40.546 200.704 40.546C198.772 40.546 197.218 40.378 196.042 40.042C194.866 39.734 194.04 39.482 193.564 39.286L194.446 35.044C195.202 35.352 196.098 35.646 197.134 35.926C198.198 36.206 199.402 36.346 200.746 36.346Z" fill="#18181B"/>
<defs>
<clipPath id="clip0_30_273">
<rect width="48" height="48" fill="white"/>
</clipPath>
</defs>
</svg>
