<svg width="24" height="24" viewBox="0 0 24 24" fill="none" xmlns="http://www.w3.org/2000/svg">
<path d="M15 9L11 13L9 11M20 6.19995V10.1648C20 16.7331 15.0319 19.6778 12.9258 20.6312C12.7025 20.7322 12.5916 20.7828 12.3389 20.8262C12.1795 20.8536 11.8213 20.8536 11.6619 20.8262C11.4092 20.7828 11.2972 20.7322 11.074 20.6312C8.9678 19.6778 4 16.7331 4 10.1648V6.19995C4 5.07985 4 4.51986 4.21799 4.09204C4.40973 3.71572 4.71547 3.40973 5.0918 3.21799C5.51962 3 6.08009 3 7.2002 3H16.8002C17.9203 3 18.48 3 18.9078 3.21799C19.2841 3.40973 19.5905 3.71572 19.7822 4.09204C20.0002 4.51986 20 5.07985 20 6.19995Z" stroke="#18181B" stroke-width="2" stroke-linecap="round" stroke-linejoin="round"/>
</svg>
