<svg width="41" height="32" viewBox="0 0 41 32" fill="none" xmlns="http://www.w3.org/2000/svg">
<path d="M4.382 4.584C7.188 1.542 11.434 0 17 0H19V5.638L17.392 5.96C14.652 6.508 12.746 7.586 11.726 9.168C11.1938 10.0203 10.8919 10.9961 10.85 12H17C17.5304 12 18.0391 12.2107 18.4142 12.5858C18.7893 12.9609 19 13.4696 19 14V28C19 30.206 17.206 32 15 32H3C2.46957 32 1.96086 31.7893 1.58579 31.4142C1.21072 31.0391 1 30.5304 1 30V20L1.006 14.162C0.988002 13.94 0.608002 8.68 4.382 4.584ZM37 32H25C24.4696 32 23.9609 31.7893 23.5858 31.4142C23.2107 31.0391 23 30.5304 23 30V20L23.006 14.162C22.988 13.94 22.608 8.68 26.382 4.584C29.188 1.542 33.434 0 39 0H41V5.638L39.392 5.96C36.652 6.508 34.746 7.586 33.726 9.168C33.1938 10.0203 32.8919 10.9961 32.85 12H39C39.5304 12 40.0391 12.2107 40.4142 12.5858C40.7893 12.9609 41 13.4696 41 14V28C41 30.206 39.206 32 37 32Z" fill="white" fill-opacity="0.25"/>
</svg>
